<svg xmlns="http://www.w3.org/2000/svg" xmlns:xlink="http://www.w3.org/1999/xlink" width="500" zoomAndPan="magnify" viewBox="0 0 375 374.999991" height="500" preserveAspectRatio="xMidYMid meet" version="1.0"><defs><g/><clipPath id="ba3dad2f50"><path d="M 15.367188 18.945312 L 360 18.945312 L 360 355.742188 L 15.367188 355.742188 Z M 15.367188 18.945312 " clip-rule="nonzero"/></clipPath><clipPath id="91c080f8ac"><path d="M 187.652344 18.945312 C 92.5 18.945312 15.367188 94.339844 15.367188 187.34375 C 15.367188 280.347656 92.5 355.742188 187.652344 355.742188 C 282.800781 355.742188 359.933594 280.347656 359.933594 187.34375 C 359.933594 94.339844 282.800781 18.945312 187.652344 18.945312 Z M 187.652344 18.945312 " clip-rule="nonzero"/></clipPath><clipPath id="cd54f28252"><path d="M 69 168 L 295.625 168 L 295.625 261 L 69 261 Z M 69 168 " clip-rule="nonzero"/></clipPath></defs><g clip-path="url(#ba3dad2f50)"><g clip-path="url(#91c080f8ac)"><path fill="#ffffff" d="M 15.367188 18.945312 L 360.058594 18.945312 L 360.058594 355.742188 L 15.367188 355.742188 Z M 15.367188 18.945312 " fill-opacity="1" fill-rule="nonzero"/></g></g><g fill="#004aad" fill-opacity="1"><g transform="translate(-6.886535, 350.319026)"><g><path d="M 372.171875 -166.671875 C 372.171875 -132.265625 364.75 -102.039062 349.90625 -76 C 335.070312 -49.957031 314.316406 -29.675781 287.640625 -15.15625 C 260.972656 -0.632812 229.960938 6.625 194.609375 6.625 C 159.253906 6.625 128.160156 -0.632812 101.328125 -15.15625 C 74.492188 -29.675781 53.660156 -49.957031 38.828125 -76 C 23.992188 -102.039062 16.578125 -132.265625 16.578125 -166.671875 C 16.578125 -201.078125 23.992188 -231.300781 38.828125 -257.34375 C 53.660156 -283.382812 74.492188 -303.742188 101.328125 -318.421875 C 128.160156 -333.109375 159.253906 -340.453125 194.609375 -340.453125 C 229.960938 -340.453125 260.894531 -333.191406 287.40625 -318.671875 C 313.925781 -304.148438 334.679688 -283.863281 349.671875 -257.8125 C 364.671875 -231.769531 372.171875 -201.390625 372.171875 -166.671875 Z M 54.921875 -127.375 C 62.179688 -102.113281 72.675781 -80.40625 86.40625 -62.25 C 100.144531 -44.101562 116.40625 -30.21875 135.1875 -20.59375 C 153.96875 -10.96875 174.09375 -6.15625 195.5625 -6.15625 C 209.757812 -6.15625 223.960938 -8.207031 238.171875 -12.3125 C 265.953125 -20.207031 288.441406 -33.546875 305.640625 -52.328125 C 322.847656 -71.109375 333.976562 -93.753906 339.03125 -120.265625 C 344.082031 -146.785156 342.34375 -175.351562 333.8125 -205.96875 C 323.082031 -244.164062 305.085938 -273.992188 279.828125 -295.453125 C 254.578125 -316.921875 225.539062 -327.65625 192.71875 -327.65625 C 178.195312 -327.65625 164.148438 -325.601562 150.578125 -321.5 C 123.109375 -313.613281 100.691406 -300.195312 83.328125 -281.25 C 65.972656 -262.3125 54.769531 -239.582031 49.71875 -213.0625 C 44.664062 -186.550781 46.398438 -157.988281 54.921875 -127.375 Z M 54.921875 -127.375 "/></g></g></g><path fill="#000000" d="M 222.910156 111.738281 C 214.804688 117.546875 210.308594 127.792969 207.179688 136.988281 C 205.898438 140.699219 208.546875 145.378906 212.636719 145.457031 C 219.296875 145.617188 225.957031 145.699219 232.539062 145.78125 C 238.476562 145.941406 246.421875 147.152344 251.796875 144.328125 C 255.007812 142.632812 255.085938 138.519531 252.359375 136.34375 C 247.382812 132.46875 238.796875 132.710938 232.777344 132.46875 C 225.796875 132.226562 218.816406 132.308594 211.914062 132.875 C 214.324219 135.617188 216.730469 138.441406 219.058594 141.183594 C 221.222656 132.226562 225.71875 124.242188 228.367188 115.449219 C 229.488281 111.980469 225.636719 109.800781 222.910156 111.738281 Z M 222.910156 111.738281 " fill-opacity="1" fill-rule="nonzero"/><g clip-path="url(#cd54f28252)"><path fill="#000000" d="M 69.800781 201.925781 C 77.023438 218.863281 91.628906 230.882812 107.355469 239.597656 C 124.847656 249.277344 144.109375 255.730469 163.847656 258.632812 C 202.125 264.199219 242.488281 253.957031 269.933594 225.722656 C 283.496094 211.765625 294.167969 193.453125 295.050781 173.609375 C 295.289062 168.609375 288.230469 166.996094 286.464844 171.835938 C 281.167969 186.277344 273.945312 199.828125 263.433594 211.203125 C 253 222.414062 240.402344 230.964844 226.199219 236.691406 C 192.496094 250.324219 152.535156 245.726562 119.875 231.367188 C 102.78125 223.707031 87.9375 212.167969 75.5 198.132812 C 72.769531 195.148438 68.277344 198.375 69.800781 201.925781 Z M 69.800781 201.925781 " fill-opacity="1" fill-rule="nonzero"/></g><path fill="#000000" d="M 124.769531 121.015625 C 120.113281 131.421875 119.390625 145.054688 122.921875 155.945312 C 124.449219 160.542969 132.390625 161.347656 132.3125 155.378906 C 132.3125 149.652344 131.667969 143.925781 131.347656 138.199219 C 131.027344 132.550781 130.949219 126.984375 130.304688 121.417969 C 129.984375 118.351562 125.8125 118.675781 124.769531 121.015625 Z M 124.769531 121.015625 " fill-opacity="1" fill-rule="nonzero"/></svg>