<svg xmlns="http://www.w3.org/2000/svg" xmlns:xlink="http://www.w3.org/1999/xlink" width="500" zoomAndPan="magnify" viewBox="0 0 375 74.999997" height="100" preserveAspectRatio="xMidYMid meet" version="1.0"><defs><g/><clipPath id="98b991e9b8"><path d="M 117.070312 8.105469 L 212.644531 8.105469 L 212.644531 62.71875 L 117.070312 62.71875 Z M 117.070312 8.105469 " clip-rule="nonzero"/></clipPath><clipPath id="a42dda7cd0"><path d="M 269 20.742188 L 278 20.742188 L 278 28 L 269 28 Z M 269 20.742188 " clip-rule="nonzero"/></clipPath><clipPath id="2ae775cdce"><path d="M 247.089844 31 L 284.636719 31 L 284.636719 48 L 247.089844 48 Z M 247.089844 31 " clip-rule="nonzero"/></clipPath></defs><g fill="#000000" fill-opacity="1"><g transform="translate(86.290835, 53.524255)"><g><path d="M 24.03125 -8.921875 C 24.03125 -7.066406 23.566406 -5.410156 22.640625 -3.953125 C 21.710938 -2.492188 20.4375 -1.34375 18.8125 -0.5 C 17.195312 0.332031 15.320312 0.75 13.1875 0.75 C 9.738281 0.75 7.015625 -0.144531 5.015625 -1.9375 C 3.023438 -3.738281 2.03125 -6.066406 2.03125 -8.921875 C 2.03125 -10.804688 2.472656 -12.765625 3.359375 -14.796875 C 3.503906 -15.078125 3.675781 -15.304688 3.875 -15.484375 C 4.070312 -15.660156 4.347656 -15.710938 4.703125 -15.640625 C 5.203125 -15.578125 5.804688 -15.488281 6.515625 -15.375 C 7.222656 -15.269531 7.828125 -15.179688 8.328125 -15.109375 C 8.648438 -15.078125 8.8125 -14.863281 8.8125 -14.46875 C 8.8125 -14.15625 8.6875 -13.890625 8.4375 -13.671875 C 7.257812 -12.710938 6.40625 -11.695312 5.875 -10.625 C 5.34375 -9.5625 5.078125 -8.515625 5.078125 -7.484375 C 5.078125 -6.265625 5.429688 -5.128906 6.140625 -4.078125 C 6.847656 -3.035156 7.816406 -2.207031 9.046875 -1.59375 C 10.273438 -0.988281 11.691406 -0.6875 13.296875 -0.6875 C 15.578125 -0.6875 17.332031 -1.460938 18.5625 -3.015625 C 19.789062 -4.566406 20.28125 -6.515625 20.03125 -8.859375 C 19.8125 -10.890625 18.945312 -12.6875 17.4375 -14.25 C 15.925781 -15.820312 14.207031 -17.300781 12.28125 -18.6875 C 10.925781 -19.71875 9.5625 -20.8125 8.1875 -21.96875 C 6.820312 -23.132812 5.664062 -24.398438 4.71875 -25.765625 C 3.78125 -27.140625 3.273438 -28.644531 3.203125 -30.28125 C 3.171875 -31.84375 3.535156 -33.25 4.296875 -34.5 C 5.066406 -35.75 6.179688 -36.738281 7.640625 -37.46875 C 9.097656 -38.195312 10.785156 -38.5625 12.703125 -38.5625 C 14.628906 -38.5625 16.320312 -38.222656 17.78125 -37.546875 C 19.238281 -36.867188 20.359375 -35.929688 21.140625 -34.734375 C 21.929688 -33.546875 22.269531 -32.171875 22.15625 -30.609375 C 22.125 -29.816406 22.023438 -29.097656 21.859375 -28.453125 C 21.703125 -27.816406 21.429688 -27.035156 21.046875 -26.109375 C 20.796875 -25.546875 20.421875 -25.316406 19.921875 -25.421875 C 19.453125 -25.492188 18.925781 -25.570312 18.34375 -25.65625 C 17.757812 -25.75 17.253906 -25.8125 16.828125 -25.84375 C 16.535156 -25.914062 16.390625 -26.09375 16.390625 -26.375 C 16.390625 -26.695312 16.5 -26.929688 16.71875 -27.078125 C 17.53125 -27.710938 18.175781 -28.359375 18.65625 -29.015625 C 19.144531 -29.679688 19.40625 -30.492188 19.4375 -31.453125 C 19.507812 -33.160156 18.910156 -34.546875 17.640625 -35.609375 C 16.378906 -36.679688 14.703125 -37.1875 12.609375 -37.125 C 10.648438 -37.082031 9.109375 -36.410156 7.984375 -35.109375 C 6.859375 -33.816406 6.40625 -32.171875 6.625 -30.171875 C 6.769531 -29.035156 7.210938 -27.976562 7.953125 -27 C 8.703125 -26.019531 9.617188 -25.109375 10.703125 -24.265625 C 11.796875 -23.429688 12.875 -22.625 13.9375 -21.84375 C 15.570312 -20.707031 17.164062 -19.503906 18.71875 -18.234375 C 20.269531 -16.972656 21.550781 -15.582031 22.5625 -14.0625 C 23.582031 -12.550781 24.070312 -10.835938 24.03125 -8.921875 Z M 24.03125 -8.921875 "/></g></g></g><g fill="#000000" fill-opacity="1"><g transform="translate(111.820272, 53.524255)"><g><path d="M 36.15625 -15.171875 C 36.15625 -12.035156 35.441406 -9.28125 34.015625 -6.90625 C 32.597656 -4.539062 30.597656 -2.695312 28.015625 -1.375 C 25.429688 -0.0625 22.429688 0.59375 19.015625 0.59375 C 15.628906 0.59375 12.644531 -0.0625 10.0625 -1.375 C 7.476562 -2.695312 5.46875 -4.539062 4.03125 -6.90625 C 2.59375 -9.28125 1.875 -12.035156 1.875 -15.171875 C 1.875 -18.296875 2.59375 -21.050781 4.03125 -23.4375 C 5.46875 -25.832031 7.476562 -27.695312 10.0625 -29.03125 C 12.644531 -30.363281 15.628906 -31.03125 19.015625 -31.03125 C 22.429688 -31.03125 25.429688 -30.363281 28.015625 -29.03125 C 30.597656 -27.695312 32.597656 -25.84375 34.015625 -23.46875 C 35.441406 -21.101562 36.15625 -18.335938 36.15625 -15.171875 Z M 5.609375 -11.59375 C 6.640625 -8.132812 8.375 -5.4375 10.8125 -3.5 C 13.25 -1.5625 16.035156 -0.59375 19.171875 -0.59375 C 20.554688 -0.59375 21.910156 -0.769531 23.234375 -1.125 C 25.898438 -1.832031 28.0625 -3.039062 29.71875 -4.75 C 31.375 -6.457031 32.453125 -8.519531 32.953125 -10.9375 C 33.453125 -13.363281 33.273438 -15.96875 32.421875 -18.75 C 31.390625 -22.238281 29.648438 -24.953125 27.203125 -26.890625 C 24.765625 -28.828125 21.984375 -29.796875 18.859375 -29.796875 C 17.460938 -29.796875 16.109375 -29.617188 14.796875 -29.265625 C 12.117188 -28.554688 9.953125 -27.335938 8.296875 -25.609375 C 6.648438 -23.878906 5.582031 -21.8125 5.09375 -19.40625 C 4.613281 -17.007812 4.785156 -14.40625 5.609375 -11.59375 Z M 5.609375 -11.59375 "/></g></g></g><g fill="#000000" fill-opacity="1"><g transform="translate(148.779183, 53.524255)"><g><path d="M 8.65625 -0.328125 C 8.65625 -0.109375 8.53125 0 8.28125 0 L 2.5625 0 C 2.28125 0 2.140625 -0.125 2.140625 -0.375 C 2.140625 -0.582031 2.191406 -0.796875 2.296875 -1.015625 L 2.828125 -2.5625 C 3.222656 -3.738281 3.546875 -5.046875 3.796875 -6.484375 C 4.046875 -7.929688 4.1875 -9.273438 4.21875 -10.515625 L 4.21875 -19.390625 C 4.21875 -20.671875 4.082031 -22.09375 3.8125 -23.65625 C 3.550781 -25.226562 3.207031 -26.617188 2.78125 -27.828125 L 2.25 -29.375 C 2.175781 -29.65625 2.140625 -29.882812 2.140625 -30.0625 C 2.140625 -30.28125 2.265625 -30.390625 2.515625 -30.390625 L 8.859375 -30.390625 C 8.972656 -30.390625 9.082031 -30.390625 9.1875 -30.390625 C 9.289062 -30.390625 9.378906 -30.390625 9.453125 -30.390625 C 12.015625 -30.390625 14.265625 -29.9375 16.203125 -29.03125 C 18.148438 -28.125 19.664062 -26.847656 20.75 -25.203125 C 21.832031 -23.566406 22.375 -21.664062 22.375 -19.5 C 22.375 -16.820312 21.554688 -14.554688 19.921875 -12.703125 C 18.285156 -10.859375 16.078125 -9.632812 13.296875 -9.03125 C 13.722656 -8.988281 14.21875 -8.832031 14.78125 -8.5625 C 15.351562 -8.300781 15.976562 -7.832031 16.65625 -7.15625 L 22.75 -1.171875 C 23.144531 -0.816406 23.28125 -0.53125 23.15625 -0.3125 C 23.03125 -0.101562 22.71875 0 22.21875 0 L 17.9375 0 C 17.625 0 17.378906 -0.140625 17.203125 -0.421875 C 16.984375 -0.890625 16.632812 -1.578125 16.15625 -2.484375 C 15.675781 -3.390625 15.160156 -4.296875 14.609375 -5.203125 C 14.054688 -6.109375 13.566406 -6.757812 13.140625 -7.15625 C 12.566406 -7.6875 11.90625 -8.054688 11.15625 -8.265625 C 10.414062 -8.484375 9.707031 -8.613281 9.03125 -8.65625 C 8.664062 -8.65625 8.285156 -8.65625 7.890625 -8.65625 C 7.503906 -8.65625 7.117188 -8.65625 6.734375 -8.65625 C 6.941406 -6.445312 7.367188 -4.429688 8.015625 -2.609375 L 8.546875 -1.015625 C 8.617188 -0.941406 8.65625 -0.832031 8.65625 -0.6875 C 8.65625 -0.550781 8.65625 -0.429688 8.65625 -0.328125 Z M 6.625 -11.0625 C 6.625 -10.84375 6.625 -10.617188 6.625 -10.390625 C 6.625 -10.160156 6.640625 -9.9375 6.671875 -9.71875 L 8.703125 -9.71875 C 11.765625 -9.75 14.238281 -10.59375 16.125 -12.25 C 18.007812 -13.90625 18.972656 -16.300781 19.015625 -19.4375 C 19.046875 -21.5 18.644531 -23.285156 17.8125 -24.796875 C 16.976562 -26.316406 15.8125 -27.46875 14.3125 -28.25 C 12.8125 -29.03125 11.066406 -29.382812 9.078125 -29.3125 C 8.578125 -29.3125 8.148438 -29.035156 7.796875 -28.484375 C 7.441406 -27.941406 7.164062 -27.273438 6.96875 -26.484375 C 6.769531 -25.703125 6.65625 -24.9375 6.625 -24.1875 Z M 6.625 -11.0625 "/></g></g></g><g fill="#000000" fill-opacity="1"><g transform="translate(173.614316, 53.524255)"><g><path d="M 8.65625 -0.328125 C 8.65625 -0.109375 8.53125 0 8.28125 0 L 2.5625 0 C 2.28125 0 2.140625 -0.125 2.140625 -0.375 C 2.140625 -0.582031 2.191406 -0.796875 2.296875 -1.015625 L 2.828125 -2.5625 C 3.222656 -3.738281 3.546875 -5.046875 3.796875 -6.484375 C 4.046875 -7.929688 4.1875 -9.273438 4.21875 -10.515625 L 4.21875 -19.390625 C 4.21875 -20.671875 4.082031 -22.09375 3.8125 -23.65625 C 3.550781 -25.226562 3.207031 -26.617188 2.78125 -27.828125 L 2.25 -29.375 C 2.175781 -29.65625 2.140625 -29.882812 2.140625 -30.0625 C 2.140625 -30.28125 2.265625 -30.390625 2.515625 -30.390625 L 8.859375 -30.390625 C 8.972656 -30.390625 9.082031 -30.390625 9.1875 -30.390625 C 9.289062 -30.390625 9.378906 -30.390625 9.453125 -30.390625 C 12.015625 -30.390625 14.265625 -29.9375 16.203125 -29.03125 C 18.148438 -28.125 19.664062 -26.847656 20.75 -25.203125 C 21.832031 -23.566406 22.375 -21.664062 22.375 -19.5 C 22.375 -16.820312 21.554688 -14.554688 19.921875 -12.703125 C 18.285156 -10.859375 16.078125 -9.632812 13.296875 -9.03125 C 13.722656 -8.988281 14.21875 -8.832031 14.78125 -8.5625 C 15.351562 -8.300781 15.976562 -7.832031 16.65625 -7.15625 L 22.75 -1.171875 C 23.144531 -0.816406 23.28125 -0.53125 23.15625 -0.3125 C 23.03125 -0.101562 22.71875 0 22.21875 0 L 17.9375 0 C 17.625 0 17.378906 -0.140625 17.203125 -0.421875 C 16.984375 -0.890625 16.632812 -1.578125 16.15625 -2.484375 C 15.675781 -3.390625 15.160156 -4.296875 14.609375 -5.203125 C 14.054688 -6.109375 13.566406 -6.757812 13.140625 -7.15625 C 12.566406 -7.6875 11.90625 -8.054688 11.15625 -8.265625 C 10.414062 -8.484375 9.707031 -8.613281 9.03125 -8.65625 C 8.664062 -8.65625 8.285156 -8.65625 7.890625 -8.65625 C 7.503906 -8.65625 7.117188 -8.65625 6.734375 -8.65625 C 6.941406 -6.445312 7.367188 -4.429688 8.015625 -2.609375 L 8.546875 -1.015625 C 8.617188 -0.941406 8.65625 -0.832031 8.65625 -0.6875 C 8.65625 -0.550781 8.65625 -0.429688 8.65625 -0.328125 Z M 6.625 -11.0625 C 6.625 -10.84375 6.625 -10.617188 6.625 -10.390625 C 6.625 -10.160156 6.640625 -9.9375 6.671875 -9.71875 L 8.703125 -9.71875 C 11.765625 -9.75 14.238281 -10.59375 16.125 -12.25 C 18.007812 -13.90625 18.972656 -16.300781 19.015625 -19.4375 C 19.046875 -21.5 18.644531 -23.285156 17.8125 -24.796875 C 16.976562 -26.316406 15.8125 -27.46875 14.3125 -28.25 C 12.8125 -29.03125 11.066406 -29.382812 9.078125 -29.3125 C 8.578125 -29.3125 8.148438 -29.035156 7.796875 -28.484375 C 7.441406 -27.941406 7.164062 -27.273438 6.96875 -26.484375 C 6.769531 -25.703125 6.65625 -24.9375 6.625 -24.1875 Z M 6.625 -11.0625 "/></g></g></g><g fill="#000000" fill-opacity="1"><g transform="translate(198.449448, 53.524255)"><g><path d="M 9.71875 -0.328125 C 9.71875 -0.109375 9.59375 0 9.34375 0 L 3.578125 0 C 3.328125 0 3.203125 -0.125 3.203125 -0.375 C 3.203125 -0.519531 3.238281 -0.734375 3.3125 -1.015625 L 3.84375 -2.5625 C 4.269531 -3.8125 4.613281 -5.207031 4.875 -6.75 C 5.144531 -8.300781 5.28125 -9.738281 5.28125 -11.0625 L 5.28125 -19.390625 C 5.28125 -20.671875 5.144531 -22.09375 4.875 -23.65625 C 4.613281 -25.226562 4.269531 -26.617188 3.84375 -27.828125 L 3.3125 -29.375 C 3.238281 -29.65625 3.203125 -29.882812 3.203125 -30.0625 C 3.203125 -30.28125 3.328125 -30.390625 3.578125 -30.390625 L 9.34375 -30.390625 C 9.59375 -30.390625 9.71875 -30.28125 9.71875 -30.0625 C 9.71875 -29.882812 9.679688 -29.65625 9.609375 -29.375 L 9.078125 -27.828125 C 8.722656 -26.722656 8.421875 -25.484375 8.171875 -24.109375 C 7.921875 -22.742188 7.757812 -21.4375 7.6875 -20.1875 L 7.6875 -10.203125 C 7.757812 -8.992188 7.921875 -7.703125 8.171875 -6.328125 C 8.421875 -4.953125 8.722656 -3.710938 9.078125 -2.609375 L 9.609375 -1.015625 C 9.679688 -0.796875 9.71875 -0.566406 9.71875 -0.328125 Z M 9.71875 -0.328125 "/></g></g></g><g fill="#000000" fill-opacity="1"><g transform="translate(211.427808, 53.524255)"><g><path d="M 21.84375 -7.15625 C 21.84375 -5.695312 21.421875 -4.378906 20.578125 -3.203125 C 19.742188 -2.023438 18.597656 -1.097656 17.140625 -0.421875 C 15.679688 0.253906 13.988281 0.59375 12.0625 0.59375 C 8.96875 0.59375 6.519531 -0.132812 4.71875 -1.59375 C 2.925781 -3.0625 2.03125 -4.929688 2.03125 -7.203125 C 2.03125 -8.703125 2.421875 -10.289062 3.203125 -11.96875 C 3.347656 -12.175781 3.515625 -12.347656 3.703125 -12.484375 C 3.898438 -12.628906 4.144531 -12.6875 4.4375 -12.65625 C 4.894531 -12.582031 5.4375 -12.507812 6.0625 -12.4375 C 6.6875 -12.375 7.226562 -12.304688 7.6875 -12.234375 C 8.007812 -12.191406 8.171875 -12.015625 8.171875 -11.703125 C 8.171875 -11.453125 8.046875 -11.238281 7.796875 -11.0625 C 6.722656 -10.269531 5.945312 -9.4375 5.46875 -8.5625 C 4.988281 -7.695312 4.75 -6.851562 4.75 -6.03125 C 4.75 -4.570312 5.441406 -3.289062 6.828125 -2.1875 C 8.222656 -1.082031 10.003906 -0.53125 12.171875 -0.53125 C 14.242188 -0.570312 15.828125 -1.210938 16.921875 -2.453125 C 18.023438 -3.703125 18.472656 -5.269531 18.265625 -7.15625 C 18.046875 -8.832031 17.25 -10.300781 15.875 -11.5625 C 14.507812 -12.820312 12.972656 -14.003906 11.265625 -15.109375 C 10.023438 -15.929688 8.789062 -16.804688 7.5625 -17.734375 C 6.332031 -18.660156 5.296875 -19.679688 4.453125 -20.796875 C 3.617188 -21.921875 3.164062 -23.140625 3.09375 -24.453125 C 3.019531 -26.347656 3.773438 -27.9375 5.359375 -29.21875 C 6.953125 -30.5 9.046875 -31.140625 11.640625 -31.140625 C 14.273438 -31.140625 16.394531 -30.53125 18 -29.3125 C 19.601562 -28.101562 20.316406 -26.554688 20.140625 -24.671875 C 20.097656 -24.066406 20.015625 -23.492188 19.890625 -22.953125 C 19.765625 -22.421875 19.523438 -21.800781 19.171875 -21.09375 C 18.921875 -20.664062 18.566406 -20.472656 18.109375 -20.515625 C 17.753906 -20.578125 17.300781 -20.644531 16.75 -20.71875 C 16.195312 -20.789062 15.722656 -20.84375 15.328125 -20.875 C 15.078125 -20.914062 14.953125 -21.0625 14.953125 -21.3125 C 14.953125 -21.5625 15.039062 -21.738281 15.21875 -21.84375 C 16 -22.34375 16.59375 -22.867188 17 -23.421875 C 17.414062 -23.972656 17.640625 -24.640625 17.671875 -25.421875 C 17.742188 -26.773438 17.207031 -27.882812 16.0625 -28.75 C 14.925781 -29.625 13.414062 -30.023438 11.53125 -29.953125 C 9.789062 -29.921875 8.421875 -29.390625 7.421875 -28.359375 C 6.421875 -27.328125 6.007812 -25.992188 6.1875 -24.359375 C 6.300781 -23.429688 6.695312 -22.570312 7.375 -21.78125 C 8.050781 -21 8.867188 -20.28125 9.828125 -19.625 C 10.785156 -18.96875 11.742188 -18.316406 12.703125 -17.671875 C 14.171875 -16.742188 15.609375 -15.765625 17.015625 -14.734375 C 18.421875 -13.703125 19.582031 -12.570312 20.5 -11.34375 C 21.425781 -10.113281 21.875 -8.71875 21.84375 -7.15625 Z M 21.84375 -7.15625 "/></g></g></g><g fill="#004aad" fill-opacity="1"><g transform="translate(234.35508, 61.678163)"><g><path d="M 63.34375 -28.375 C 63.34375 -22.507812 62.078125 -17.359375 59.546875 -12.921875 C 57.023438 -8.492188 53.492188 -5.046875 48.953125 -2.578125 C 44.421875 -0.109375 39.144531 1.125 33.125 1.125 C 27.101562 1.125 21.804688 -0.109375 17.234375 -2.578125 C 12.671875 -5.046875 9.128906 -8.492188 6.609375 -12.921875 C 4.085938 -17.359375 2.828125 -22.507812 2.828125 -28.375 C 2.828125 -34.226562 4.085938 -39.367188 6.609375 -43.796875 C 9.128906 -48.234375 12.671875 -51.703125 17.234375 -54.203125 C 21.804688 -56.703125 27.101562 -57.953125 33.125 -57.953125 C 39.144531 -57.953125 44.410156 -56.710938 48.921875 -54.234375 C 53.429688 -51.765625 56.960938 -48.3125 59.515625 -43.875 C 62.066406 -39.445312 63.34375 -34.28125 63.34375 -28.375 Z M 9.34375 -21.6875 C 10.582031 -17.382812 12.367188 -13.6875 14.703125 -10.59375 C 17.046875 -7.507812 19.816406 -5.144531 23.015625 -3.5 C 26.210938 -1.863281 29.632812 -1.046875 33.28125 -1.046875 C 35.695312 -1.046875 38.113281 -1.394531 40.53125 -2.09375 C 45.257812 -3.4375 49.085938 -5.707031 52.015625 -8.90625 C 54.953125 -12.101562 56.847656 -15.957031 57.703125 -20.46875 C 58.566406 -24.976562 58.269531 -29.84375 56.8125 -35.0625 C 54.988281 -41.5625 51.925781 -46.632812 47.625 -50.28125 C 43.332031 -53.9375 38.390625 -55.765625 32.796875 -55.765625 C 30.328125 -55.765625 27.9375 -55.414062 25.625 -54.71875 C 20.945312 -53.375 17.128906 -51.085938 14.171875 -47.859375 C 11.222656 -44.640625 9.316406 -40.773438 8.453125 -36.265625 C 7.597656 -31.753906 7.894531 -26.894531 9.34375 -21.6875 Z M 9.34375 -21.6875 "/></g></g></g><g clip-path="url(#98b991e9b8)"><path fill="#000000" d="M 10.523438 62.714844 C 10.078125 60.082031 10.078125 57.324219 10.585938 54.695312 C 11.09375 52.0625 12.042969 49.496094 13.3125 47.121094 C 15.851562 42.375 19.65625 38.332031 24.160156 35.445312 C 28.726562 32.554688 33.863281 30.824219 39.0625 29.796875 C 44.328125 28.835938 49.65625 28.578125 54.984375 28.707031 C 65.640625 29.027344 76.167969 30.757812 86.503906 33.003906 C 91.707031 34.160156 96.84375 35.445312 101.980469 36.726562 C 107.117188 38.011719 112.257812 39.359375 117.394531 40.707031 C 127.667969 43.398438 137.945312 46.03125 148.472656 46.992188 C 153.734375 47.441406 159 47.441406 164.265625 46.863281 C 169.527344 46.351562 174.792969 45.519531 179.867188 44.171875 C 184.941406 42.824219 189.953125 40.960938 194.453125 38.136719 C 196.675781 36.726562 198.703125 35.058594 200.605469 33.199219 C 201.558594 32.234375 202.511719 31.273438 203.398438 30.308594 C 204.285156 29.347656 205.109375 28.320312 206 27.292969 C 207.648438 25.242188 209.296875 23.125 210.753906 20.878906 C 211.515625 19.785156 212.152344 18.632812 212.722656 17.414062 C 213.292969 16.195312 213.734375 14.972656 213.988281 13.691406 C 214.242188 12.40625 214.242188 11.058594 213.609375 10.035156 C 213.292969 9.519531 212.785156 9.199219 212.214844 8.941406 C 211.644531 8.6875 211.007812 8.558594 210.4375 8.621094 C 209.234375 8.6875 208.089844 9.519531 207.519531 10.675781 C 206.949219 11.832031 206.757812 13.175781 206.949219 14.398438 L 206.503906 14.398438 C 206.570312 13.5625 206.1875 12.792969 205.679688 12.152344 C 205.109375 11.574219 204.347656 11.125 203.589844 10.867188 C 202.765625 10.804688 201.875 10.804688 201.113281 10.996094 C 200.289062 11.1875 199.59375 11.703125 199.085938 12.40625 C 198.578125 13.050781 198.324219 13.949219 198.449219 14.78125 C 198.578125 15.617188 199.085938 16.386719 199.65625 17.027344 C 200.226562 17.667969 200.859375 18.246094 201.558594 18.761719 C 202.257812 19.210938 203.082031 19.53125 203.90625 19.722656 C 203.082031 19.59375 202.191406 19.335938 201.496094 18.886719 C 200.734375 18.4375 200.101562 17.863281 199.527344 17.21875 C 198.957031 16.578125 198.449219 15.808594 198.261719 14.910156 C 198.070312 14.011719 198.324219 13.050781 198.832031 12.34375 C 199.339844 11.636719 200.101562 11.058594 200.988281 10.804688 C 201.875 10.546875 202.761719 10.546875 203.652344 10.804688 C 204.539062 11.058594 205.300781 11.507812 205.933594 12.152344 C 206.570312 12.792969 206.949219 13.753906 206.949219 14.652344 L 206.503906 14.652344 C 206.253906 13.304688 206.441406 11.832031 207.078125 10.609375 C 207.710938 9.328125 208.914062 8.300781 210.375 8.171875 C 211.074219 8.109375 211.832031 8.238281 212.46875 8.492188 C 213.101562 8.75 213.800781 9.199219 214.179688 9.839844 C 214.5625 10.484375 214.75 11.1875 214.8125 11.894531 C 214.878906 12.601562 214.8125 13.304688 214.6875 13.949219 C 214.117188 16.644531 212.910156 19.144531 211.390625 21.328125 C 209.867188 23.574219 208.28125 25.691406 206.632812 27.808594 C 205.808594 28.835938 204.921875 29.859375 204.03125 30.886719 C 203.082031 31.851562 202.191406 32.8125 201.242188 33.773438 C 199.339844 35.699219 197.246094 37.367188 194.960938 38.84375 C 190.332031 41.605469 185.257812 43.464844 180.121094 44.8125 C 174.984375 46.160156 169.71875 46.992188 164.390625 47.507812 C 159.128906 48.085938 153.734375 48.085938 148.472656 47.636719 C 137.878906 46.671875 127.542969 44.042969 117.265625 41.347656 C 112.128906 40 106.992188 38.652344 101.855469 37.367188 C 96.71875 36.085938 91.578125 34.800781 86.378906 33.648438 C 76.039062 31.402344 65.574219 29.667969 54.984375 29.347656 C 49.71875 29.21875 44.390625 29.476562 39.191406 30.4375 C 33.988281 31.402344 28.980469 33.199219 24.476562 35.957031 C 19.972656 38.714844 16.167969 42.628906 13.566406 47.25 C 12.296875 49.558594 11.285156 52.0625 10.714844 54.695312 C 10.207031 57.324219 10.078125 60.082031 10.523438 62.714844 Z M 10.523438 62.714844 " fill-opacity="1" fill-rule="nonzero"/></g><g clip-path="url(#a42dda7cd0)"><path fill="#000000" d="M 272.644531 21.085938 C 271.308594 22.113281 270.566406 23.925781 270.050781 25.550781 C 269.839844 26.207031 270.277344 27.035156 270.949219 27.046875 C 272.050781 27.078125 273.148438 27.089844 274.230469 27.105469 C 275.210938 27.132812 276.519531 27.347656 277.40625 26.847656 C 277.9375 26.550781 277.949219 25.820312 277.5 25.4375 C 276.679688 24.75 275.265625 24.792969 274.273438 24.75 C 273.121094 24.707031 271.96875 24.722656 270.832031 24.824219 C 271.230469 25.308594 271.625 25.808594 272.007812 26.292969 C 272.367188 24.707031 273.105469 23.296875 273.542969 21.742188 C 273.730469 21.128906 273.09375 20.742188 272.644531 21.085938 Z M 272.644531 21.085938 " fill-opacity="1" fill-rule="nonzero"/></g><g clip-path="url(#2ae775cdce)"><path fill="#000000" d="M 247.402344 37.035156 C 248.589844 40.03125 251 42.15625 253.59375 43.699219 C 256.476562 45.410156 259.652344 46.550781 262.90625 47.066406 C 269.21875 48.050781 275.871094 46.238281 280.398438 41.242188 C 282.632812 38.777344 284.394531 35.539062 284.539062 32.027344 C 284.578125 31.144531 283.414062 30.859375 283.121094 31.714844 C 282.25 34.265625 281.058594 36.664062 279.324219 38.675781 C 277.605469 40.660156 275.527344 42.171875 273.1875 43.183594 C 267.628906 45.59375 261.042969 44.78125 255.65625 42.242188 C 252.839844 40.886719 250.390625 38.847656 248.339844 36.363281 C 247.890625 35.835938 247.148438 36.40625 247.402344 37.035156 Z M 247.402344 37.035156 " fill-opacity="1" fill-rule="nonzero"/></g><path fill="#000000" d="M 256.464844 22.726562 C 255.695312 24.566406 255.578125 26.976562 256.160156 28.902344 C 256.410156 29.714844 257.71875 29.859375 257.707031 28.804688 C 257.707031 27.789062 257.601562 26.777344 257.546875 25.765625 C 257.496094 24.765625 257.480469 23.78125 257.375 22.796875 C 257.324219 22.253906 256.636719 22.3125 256.464844 22.726562 Z M 256.464844 22.726562 " fill-opacity="1" fill-rule="nonzero"/></svg>